<!DOCTYPE svg PUBLIC "-//W3C//DTD SVG 20010904//EN" "http://www.w3.org/TR/2001/REC-SVG-20010904/DTD/svg10.dtd">
<svg version="1.0" xmlns="http://www.w3.org/2000/svg" width="512px" height="512px" viewBox="0 0 5120 5120" preserveAspectRatio="xMidYMid meet">
<g id="layer101" fill="#000000" stroke="none">
 <path d="M0 2560 l0 -2560 2560 0 2560 0 0 2560 0 2560 -2560 0 -2560 0 0 -2560z"/>
 </g>
<g id="layer102" fill="#00003a" stroke="none">
 <path d="M3030 3371 c-48 -11 -129 -51 -163 -81 -37 -32 -108 -145 -112 -179 -2 -14 -5 -26 -6 -26 -6 0 -8 -101 -8 -457 l0 -398 -184 0 -184 0 -6 453 c-6 450 -12 537 -47 642 l-12 35 -218 0 -219 0 11 -32 c6 -18 15 -38 19 -44 5 -6 6 -14 3 -17 -3 -3 -2 -12 2 -19 5 -7 10 -22 11 -33 1 -11 5 -38 9 -60 3 -22 8 -240 10 -484 l5 -443 -52 7 c-67 9 -146 37 -217 75 -30 16 -59 30 -64 30 -4 0 -8 -76 -8 -169 l0 -169 54 -26 c113 -55 121 -56 1004 -56 l812 0 0 155 0 155 -155 0 -155 0 0 353 c0 327 2 355 20 395 26 58 73 78 145 64 27 -6 58 -14 68 -17 16 -7 17 3 15 155 l-3 163 -40 15 c-45 17 -278 26 -335 13z"/>
 </g>
<g id="layer103" fill="#ffffdb" stroke="none">
 <path d="M3020 3366 c-147 -42 -237 -141 -269 -294 -7 -34 -11 -196 -11 -447 l0 -395 -184 0 -183 0 -6 453 c-6 450 -12 537 -47 642 l-12 35 -214 0 c-118 0 -214 -2 -214 -5 0 -3 7 -21 15 -41 35 -85 45 -228 45 -664 l0 -422 -52 7 c-66 9 -145 37 -216 75 -30 16 -59 30 -64 30 -5 0 -7 -75 -6 -167 l3 -168 52 -28 c105 -56 115 -57 1001 -57 l812 0 0 155 0 155 -155 0 -155 0 0 353 c0 327 2 355 20 395 26 58 73 78 145 64 27 -6 58 -14 68 -17 16 -7 17 3 15 155 l-3 163 -40 15 c-55 20 -284 26 -345 8z"/>
 </g>
<g id="layer104" fill="#dbffff" stroke="none">
 <path d="M3020 3366 c-147 -43 -237 -141 -269 -294 -7 -34 -11 -196 -11 -447 l0 -395 -184 0 -185 0 -5 398 c-3 218 -6 423 -5 455 0 33 -5 65 -11 72 -7 8 -9 23 -5 35 4 12 1 27 -5 35 -6 8 -9 19 -5 25 4 6 1 18 -6 26 -6 8 -9 17 -6 20 3 3 1 19 -5 35 l-10 29 -214 0 c-118 0 -214 -2 -214 -5 0 -3 7 -21 15 -41 35 -85 45 -228 45 -663 l0 -422 -62 7 c-35 3 -67 10 -72 15 -6 5 -20 9 -32 9 -13 0 -26 5 -29 10 -3 6 -14 10 -24 10 -10 0 -35 12 -56 26 -63 42 -66 36 -63 -143 l3 -158 52 -28 c105 -56 115 -57 1001 -57 l812 0 0 155 0 155 -155 0 -155 0 0 348 c0 356 5 412 41 448 18 18 94 23 157 11 l42 -9 0 157 0 156 -37 16 c-51 21 -280 28 -343 9z"/>
 </g>
<g id="layer105" fill="#ffffff" stroke="none">
 <path d="M3020 3365 c-74 -26 -120 -48 -120 -57 0 -5 -11 -13 -24 -18 -27 -10 -96 -105 -96 -131 0 -9 -7 -30 -16 -47 -8 -18 -12 -36 -9 -42 4 -6 2 -17 -4 -24 -6 -8 -10 -26 -9 -42 1 -16 1 -197 0 -401 l-2 -373 -184 0 -185 0 -5 398 c-3 218 -6 423 -5 455 0 33 -5 65 -11 72 -7 8 -9 23 -5 35 4 12 1 27 -5 35 -6 8 -9 19 -5 25 4 6 1 18 -6 26 -6 8 -9 17 -6 20 3 3 1 19 -5 35 l-10 29 -213 0 -214 0 15 -27 c7 -16 14 -42 14 -60 0 -17 5 -35 10 -38 6 -3 7 -17 4 -30 -3 -12 -1 -26 5 -29 6 -4 8 -20 4 -36 -3 -17 -2 -36 3 -42 5 -7 8 -206 6 -441 l-3 -428 -62 7 c-34 3 -66 10 -71 15 -6 5 -20 9 -32 9 -13 0 -26 5 -29 10 -3 6 -14 10 -24 10 -10 0 -35 12 -56 26 -63 42 -66 36 -63 -143 l3 -158 50 -24 c71 -35 86 -40 125 -48 19 -4 407 -8 863 -10 l827 -3 0 155 0 155 -155 0 -155 0 0 348 c0 450 4 464 122 466 35 0 75 -2 91 -7 l27 -7 0 155 0 156 -37 16 c-56 23 -283 29 -343 8z"/>
 </g>

</svg>